<svg xmlns="http://www.w3.org/2000/svg" 
    xmlns:xlink="http://www.w3.org/1999/xlink" version="1.1" preserveAspectRatio="xMidYMid meet" viewBox="0 0 640 640" width="640" height="640">
    <defs>
        <path d="M575.16 315.87L575.76 315.94L576.35 316.04L576.94 316.16L577.51 316.31L578.08 316.47L578.64 316.66L579.2 316.87L579.74 317.1L580.27 317.35L580.8 317.62L581.31 317.91L581.81 318.22L582.3 318.54L582.77 318.89L583.23 319.25L583.68 319.63L584.11 320.03L584.53 320.45L584.93 320.88L585.32 321.33L585.69 321.79L586.04 322.27L586.38 322.76L586.69 323.27L586.99 323.79L587.26 324.32L587.52 324.87L587.75 325.43L587.97 326.01L588.16 326.59L588.33 327.19L588.48 327.8L588.6 328.42L590.41 338.65L590.5 339.21L590.57 339.77L590.61 340.33L590.63 340.89L590.62 341.45L590.6 342L590.55 342.54L590.48 343.09L590.39 343.62L590.28 344.15L590.15 344.67L590 345.19L589.83 345.7L589.64 346.2L589.43 346.69L589.21 347.18L588.96 347.65L588.7 348.12L588.42 348.57L588.13 349.01L587.81 349.44L587.48 349.86L587.14 350.27L586.78 350.66L586.4 351.04L586.01 351.4L585.6 351.75L585.18 352.09L584.75 352.41L584.3 352.71L583.84 352.99L583.37 353.26L582.89 353.51L582.39 353.74L581.88 353.96L581.36 354.15L580.83 354.33L580.29 354.48L579.74 354.61L579.18 354.72L325.58 399.69L324.77 399.82L323.97 399.91L323.17 399.97L322.37 400L321.58 400L320.8 399.96L320.02 399.89L320 399.89L319.98 399.89L319.2 399.96L318.42 400L317.63 400L316.83 399.97L316.03 399.91L315.23 399.82L314.42 399.69L60.82 354.72L60.26 354.61L59.71 354.48L59.17 354.33L58.64 354.15L58.12 353.96L57.61 353.74L57.11 353.51L56.63 353.26L56.16 352.99L55.7 352.71L55.25 352.41L54.82 352.09L54.4 351.75L53.99 351.4L53.6 351.04L53.22 350.66L52.86 350.27L52.52 349.86L52.19 349.44L51.87 349.01L51.58 348.57L51.3 348.12L51.04 347.65L50.79 347.18L50.57 346.69L50.36 346.2L50.17 345.7L50 345.19L49.85 344.67L49.72 344.15L49.61 343.62L49.52 343.09L49.45 342.54L49.4 342L49.38 341.45L49.37 340.89L49.39 340.33L49.43 339.77L49.5 339.21L49.59 338.65L51.4 328.42L51.52 327.8L51.67 327.19L51.84 326.59L52.03 326.01L52.25 325.43L52.48 324.87L52.74 324.32L53.01 323.79L53.31 323.27L53.62 322.76L53.96 322.27L54.31 321.79L54.68 321.33L55.07 320.88L55.47 320.45L55.89 320.03L56.32 319.63L56.77 319.25L57.23 318.89L57.7 318.54L58.19 318.22L58.69 317.91L59.2 317.62L59.73 317.35L60.26 317.1L60.8 316.87L61.36 316.66L61.92 316.47L62.49 316.31L63.06 316.16L63.65 316.04L64.24 315.94L64.84 315.87L65.44 315.82L66.05 315.79L66.66 315.78L67.28 315.81L67.9 315.85L68.52 315.92L69.14 316.02L320 360.51L570.86 316.02L571.48 315.92L572.1 315.85L572.72 315.81L573.34 315.79L573.95 315.79L574.56 315.82L575.16 315.87Z" id="bG8EFs5tx"/>
        <path d="" id="d4j8xaKEPl"/>
        <path d="M300 203C300 230.6 277.6 253 250 253C222.4 253 200 230.6 200 203C200 175.4 222.4 153 250 153C277.6 153 300 175.4 300 203Z" id="drgJvjDhs"/>
        <path d="M440 203C440 230.6 417.6 253 390 253C362.4 253 340 230.6 340 203C340 175.4 362.4 153 390 153C417.6 153 440 175.4 440 203Z" id="b1WLpzJ8H8"/>
        <path d="M462.35 263.12L465.24 263.27L468.13 263.47L471.04 263.73L473.95 264.05L476.86 264.42L479.78 264.86L482.71 265.34L485.64 265.89L488.58 266.49L491.52 267.15L494.47 267.86L497.42 268.63L500.38 269.46L503.35 270.34L506.32 271.28L509.3 272.28L512.28 273.33L515.27 274.44L518.26 275.61L519.43 276.08L520.61 276.59L521.79 277.13L522.97 277.69L524.17 278.28L525.37 278.9L526.58 279.54L527.79 280.22L529.01 280.92L530.23 281.65L531.47 282.41L532.71 283.2L533.95 284.01L535.2 284.86L536.46 285.73L537.72 286.63L538.99 287.55L540.27 288.51L541.55 289.49L542.84 290.5L544.14 291.54L545.44 292.61L546.75 293.7L548.07 294.82L549.39 295.97L550.71 297.15L552.05 298.36L553.39 299.6L554.74 300.86L556.09 302.15L557.45 303.47L558.81 304.82L560.19 306.19L561.56 307.59L562.95 309.02L564.34 310.48L565.74 311.97L566.33 312.61L320 356.51L320.37 355.65L320.83 354.47L321.28 353.19L321.75 351.8L322.22 350.32L322.72 348.75L323.25 347.1L323.82 345.36L324.43 343.54L325.1 341.65L325.83 339.69L326.62 337.66L327.5 335.58L328.46 333.43L329.51 331.23L330.66 328.98L331.92 326.69L333.3 324.35L334.8 321.98L336.44 319.57L338.21 317.14L340.13 314.68L342.21 312.2L344.44 309.7L346.85 307.19L349.44 304.67L352.22 302.15L355.19 299.63L358.36 297.11L361.74 294.61L365.34 292.11L369.17 289.63L373.23 287.17L377.53 284.73L382.08 282.33L386.89 279.96L391.96 277.62L397.31 275.32L402.94 273.08L405.71 272.04L408.49 271.05L411.27 270.13L414.06 269.26L416.85 268.44L419.65 267.69L422.46 266.98L425.27 266.34L428.09 265.75L430.91 265.22L433.74 264.75L436.58 264.33L439.42 263.97L442.26 263.67L445.11 263.42L447.97 263.23L450.84 263.09L453.7 263.01L456.58 262.99L459.46 263.03L462.35 263.12Z" id="a3GpPUh5Xt"/>
        <path d="M189.16 263.1L192.03 263.24L194.89 263.43L197.74 263.67L200.58 263.98L203.42 264.34L206.26 264.76L209.09 265.23L211.91 265.76L214.73 266.35L217.54 266.99L220.35 267.69L223.15 268.45L225.94 269.26L228.73 270.13L231.51 271.06L234.29 272.04L237.06 273.08L242.69 275.33L248.04 277.63L253.11 279.96L257.92 282.34L262.47 284.74L266.77 287.18L270.83 289.64L274.66 292.12L278.26 294.61L281.64 297.12L284.81 299.64L287.78 302.16L290.56 304.68L293.15 307.2L295.56 309.71L297.79 312.21L299.87 314.69L301.79 317.14L303.56 319.58L305.2 321.99L306.7 324.36L308.08 326.69L309.34 328.99L310.49 331.24L311.54 333.44L312.5 335.58L313.37 337.67L314.17 339.7L314.9 341.66L315.57 343.55L316.18 345.37L316.75 347.11L317.28 348.76L317.78 350.33L318.25 351.81L318.72 353.19L319.17 354.48L319.63 355.66L320 356.51L73.68 312.61L74.26 311.98L75.66 310.49L77.05 309.03L78.44 307.6L79.81 306.2L81.19 304.82L82.55 303.48L83.91 302.16L85.26 300.87L86.61 299.6L87.95 298.37L89.29 297.16L90.61 295.98L91.93 294.83L93.25 293.71L94.56 292.61L95.86 291.55L97.16 290.51L98.45 289.5L99.73 288.52L101.01 287.56L102.28 286.63L103.54 285.74L104.8 284.86L106.05 284.02L107.29 283.21L108.53 282.42L109.76 281.66L110.99 280.93L112.21 280.23L113.42 279.55L114.63 278.91L115.83 278.29L117.03 277.7L118.21 277.13L119.39 276.6L120.57 276.09L121.74 275.61L124.73 274.45L127.72 273.34L130.7 272.29L133.68 271.29L136.65 270.35L139.62 269.47L142.58 268.64L145.53 267.87L148.48 267.15L151.42 266.5L154.36 265.9L157.29 265.35L160.22 264.86L163.14 264.43L166.05 264.06L168.96 263.74L171.87 263.48L174.76 263.28L177.65 263.13L180.54 263.04L183.42 263L186.3 263.02L189.16 263.1Z" id="eZTUfsBkx"/>
    </defs>
    <g>
        <g>
            <use xlink:href="#bG8EFs5tx" opacity="1" fill="#1a4893" fill-opacity="1"/>
        </g>
        <g>
            <g>
                <use xlink:href="#d4j8xaKEPl" opacity="1" fill-opacity="0" stroke="#000000" stroke-width="1" stroke-opacity="1"/>
            </g>
        </g>
        <g>
            <use xlink:href="#drgJvjDhs" opacity="1" fill="#1a4893" fill-opacity="1"/>
        </g>
        <g>
            <use xlink:href="#b1WLpzJ8H8" opacity="1" fill="#1a4893" fill-opacity="1"/>
        </g>
        <g>
            <use xlink:href="#a3GpPUh5Xt" opacity="1" fill="#1a4893" fill-opacity="1"/>
            <g>
                <use xlink:href="#a3GpPUh5Xt" opacity="1" fill-opacity="0" stroke="#1a4893" stroke-width="1" stroke-opacity="1"/>
            </g>
        </g>
        <g>
            <use xlink:href="#eZTUfsBkx" opacity="1" fill="#1a4893" fill-opacity="1"/>
            <g>
                <use xlink:href="#eZTUfsBkx" opacity="1" fill-opacity="0" stroke="#1a4893" stroke-width="1" stroke-opacity="1"/>
            </g>
        </g>
    </g>
</svg>